<svg xmlns="http://www.w3.org/2000/svg" xmlns:xlink="http://www.w3.org/1999/xlink" width="1123" zoomAndPan="magnify" viewBox="0 0 842.25 595.499986" height="794" preserveAspectRatio="xMidYMid meet" version="1.0"><defs><clipPath id="9f6eb58104"><path d="M 1.042969 3 L 176 3 L 176 523 L 1.042969 523 Z M 1.042969 3 " clip-rule="nonzero"/></clipPath><clipPath id="b24ca2d1c3"><path d="M 35.941406 0.640625 L 541.933594 0.640625 L 541.933594 524.621094 L 35.941406 524.621094 Z M 35.941406 0.640625 " clip-rule="nonzero"/></clipPath><clipPath id="85a0b3a9ee"><path d="M 1 0.640625 L 506.933594 0.640625 L 506.933594 524 L 1 524 Z M 1 0.640625 " clip-rule="nonzero"/></clipPath><clipPath id="9ac99a5223"><rect x="0" width="507" y="0" height="525"/></clipPath><clipPath id="2408eb97b1"><rect x="0" width="543" y="0" height="525"/></clipPath></defs><g transform="matrix(1, 0, 0, 1, 240, 34)"><g clip-path="url(#2408eb97b1)"><g clip-path="url(#9f6eb58104)"><path fill="#000000" d="M 146.867188 240.480469 C 145.605469 247.566406 145.222656 254.492188 144.988281 261.386719 C 144.566406 273.785156 144.453125 286.199219 144.242188 298.601562 C 144.066406 308.875 143.601562 319.140625 142.027344 329.394531 C 140.292969 340.675781 140.082031 352.179688 140.003906 363.628906 C 139.84375 387.640625 139.835938 411.65625 139.539062 435.664062 C 139.308594 454.191406 138.671875 472.710938 137.28125 491.195312 C 136.734375 498.429688 136.769531 505.679688 137.6875 512.914062 C 138.289062 517.625 138.039062 517.457031 134.207031 519.75 C 126.429688 524.402344 118.699219 522.148438 110.910156 520.003906 C 109.8125 519.703125 109.320312 518.980469 109.179688 517.957031 C 109.050781 517 108.964844 516.035156 108.929688 515.070312 C 108.324219 498.007812 107.621094 480.945312 107.179688 463.878906 C 106.949219 454.992188 105.550781 446.242188 104.734375 437.421875 C 103.800781 427.320312 102.625 417.246094 102.191406 407.09375 C 101.199219 383.75 98.980469 360.5 96.703125 337.253906 C 95.304688 322.976562 94.113281 308.644531 94.648438 294.3125 C 95.058594 283.289062 91.722656 273.398438 87.75 263.511719 C 87.519531 262.941406 87.082031 262.445312 86.707031 261.941406 C 86.648438 261.859375 86.425781 261.894531 85.742188 261.816406 C 85.460938 267.53125 84.992188 273.226562 84.9375 278.925781 C 84.789062 294.074219 85.058594 309.226562 84.734375 324.371094 C 84.15625 351.59375 83.683594 378.828125 82.398438 406.023438 C 80.742188 441.117188 79.117188 476.195312 79.863281 511.339844 C 79.917969 513.867188 80.789062 516.941406 79.65625 518.738281 C 78.832031 520.054688 75.300781 519.246094 72.980469 519.738281 C 69.378906 520.507812 65.703125 520.957031 61.972656 520.722656 C 60.324219 520.621094 58.777344 520.308594 57.28125 519.699219 C 53.882812 518.304688 51.675781 516.5625 51.304688 512.128906 C 50.675781 504.570312 49.988281 497.070312 50.425781 489.476562 C 50.601562 486.433594 50.324219 483.359375 50.128906 480.304688 C 49.1875 465.351562 48.15625 450.40625 47.253906 435.449219 C 46.738281 426.914062 45.589844 418.457031 44.226562 410.03125 C 42.035156 396.46875 41.605469 382.800781 41.058594 369.109375 C 40.234375 348.5 37.738281 328.019531 35.832031 307.492188 C 34.148438 289.355469 31.542969 271.351562 28.996094 253.332031 C 28.523438 249.984375 28.28125 246.601562 28.046875 243.226562 C 27.921875 241.425781 27.070312 240.648438 25.3125 240.636719 C 21.28125 240.613281 17.234375 240.285156 13.230469 240.597656 C 10.773438 240.789062 9.628906 238.835938 7.867188 238.351562 C 5.132812 237.597656 5.59375 235.671875 5.152344 233.914062 C 4.089844 229.65625 4.003906 225.292969 3.742188 220.964844 C 2.488281 200.363281 2.542969 179.734375 2.578125 159.105469 C 2.628906 132.515625 2.644531 105.929688 2.621094 79.34375 C 2.617188 75.640625 2.421875 71.925781 2.105469 68.238281 C 1.160156 57.246094 3.238281 46.761719 7.210938 36.574219 C 9.972656 29.484375 14.726562 25.082031 22.46875 23.292969 C 33.589844 20.726562 44.75 17.984375 54.929688 12.488281 C 59.007812 10.289062 63.433594 8.628906 66.734375 5.152344 C 67.976562 3.84375 69.066406 4.632812 70.054688 5.574219 C 73.316406 8.691406 76.582031 11.804688 79.804688 14.960938 C 82.949219 18.039062 88.542969 17.984375 91.769531 15.019531 C 95.800781 11.3125 99.992188 7.785156 104.132812 4.195312 C 105.824219 2.730469 107.238281 2.683594 108.273438 5 C 109.039062 6.71875 110.683594 7.570312 112.21875 8.4375 C 125.773438 16.074219 139.765625 22.476562 155.535156 24.035156 C 161.464844 24.621094 165.894531 27.660156 167.960938 33.378906 C 173.53125 48.796875 177.09375 64.382812 175.136719 81.125 C 173.378906 96.140625 173.628906 111.34375 174.160156 126.480469 C 174.335938 131.480469 174.46875 136.457031 174.058594 141.453125 C 173.324219 150.457031 173.382812 159.492188 173.613281 168.511719 C 174.023438 184.644531 172.585938 200.714844 172.226562 216.824219 C 172.109375 222.136719 172.054688 227.453125 171.949219 232.769531 C 171.878906 236.464844 169.050781 239.777344 165.425781 240.628906 C 160.992188 241.671875 156.4375 241.335938 151.964844 241.90625 C 150.175781 242.136719 148.625 241.085938 146.871094 240.480469 Z M 125.714844 520.566406 L 125.703125 520.5 C 128.707031 521.230469 130.875 519.207031 133.367188 518.21875 C 135.714844 517.289062 136.445312 515.71875 135.988281 513.285156 C 135.09375 508.507812 135.207031 503.660156 135.214844 498.824219 C 135.238281 487.050781 136.652344 475.339844 136.863281 463.582031 C 137.28125 439.894531 137.53125 416.207031 137.792969 392.519531 C 137.894531 383.332031 137.824219 374.144531 137.859375 364.957031 C 137.894531 355.28125 138.179688 345.597656 139.503906 336.019531 C 141.449219 321.933594 142.199219 307.824219 142.148438 293.613281 C 142.089844 277.023438 142.570312 260.433594 144.671875 243.9375 C 144.964844 241.65625 145.742188 239.332031 145.253906 236.972656 C 143.527344 236.859375 142.632812 237.945312 141.589844 238.617188 C 131.1875 245.3125 120.046875 250.207031 107.863281 252.621094 C 102.65625 253.652344 101.671875 253.214844 100.066406 248.148438 C 98.414062 242.933594 97.101562 237.609375 95.507812 232.371094 C 92.539062 222.613281 91.90625 212.414062 89.695312 202.515625 C 89.472656 201.507812 89.757812 200.144531 88.203125 199.859375 C 87.390625 200.589844 87.40625 201.617188 87.238281 202.542969 C 84.746094 216.210938 80.308594 229.351562 76.367188 242.621094 C 73.6875 251.640625 72.523438 252.515625 63.695312 249.65625 C 55.90625 247.132812 47.992188 244.789062 40.667969 240.933594 C 37.828125 239.4375 34.773438 238.351562 31.824219 237.058594 C 29.890625 236.210938 29.082031 236.949219 29.210938 238.917969 C 29.378906 241.492188 29.480469 244.074219 29.835938 246.625 C 32.941406 268.953125 36.527344 291.210938 38.5625 313.691406 C 40.316406 333.101562 42.367188 352.476562 43.339844 371.953125 C 43.765625 380.476562 43.34375 389.023438 44.558594 397.53125 C 46.175781 408.847656 47.882812 420.191406 48.628906 431.582031 C 50.140625 454.566406 52.257812 477.53125 51.78125 500.609375 C 51.699219 504.5 52.96875 508.265625 53.136719 512.109375 C 53.289062 515.644531 55.332031 517.25 58.148438 518.441406 C 63.097656 520.53125 65.253906 519.09375 65.445312 513.863281 C 65.878906 502.089844 64.769531 490.355469 64.644531 478.597656 C 64.4375 459.097656 64.53125 439.59375 64.222656 420.097656 C 64.019531 407.054688 63.300781 394.023438 62.035156 381.027344 C 61.433594 374.847656 61.160156 368.636719 60.738281 362.441406 C 61.753906 367.835938 62.214844 373.269531 62.691406 378.707031 C 63.84375 391.867188 65.085938 405.023438 65.136719 418.242188 C 65.230469 443.542969 65.167969 468.839844 65.917969 494.132812 C 66.128906 501.222656 66.074219 508.316406 66.222656 515.40625 C 66.289062 518.546875 66.570312 518.769531 69.613281 518.480469 C 71.375 518.3125 73.109375 517.847656 74.875 517.695312 C 77.25 517.492188 78.136719 516.472656 78.027344 513.964844 C 77.769531 508.011719 77.800781 502.042969 77.761719 496.078125 C 77.550781 463.835938 79.519531 431.65625 80.4375 399.449219 C 81.28125 369.820312 82.804688 340.195312 82.613281 310.53125 C 82.503906 294.421875 82.441406 278.296875 83.945312 262.222656 C 84.121094 260.351562 83.875 258.382812 85.132812 256.496094 C 86.316406 257.3125 86.703125 258.570312 87.28125 259.667969 C 89.90625 264.671875 91.800781 269.988281 93.953125 275.195312 C 95.394531 278.679688 96.140625 282.195312 96.195312 285.976562 C 96.480469 304.992188 97.414062 323.972656 99.492188 342.886719 C 101.378906 360.019531 102.777344 377.203125 103.8125 394.402344 C 104.632812 408.070312 104.902344 421.78125 106.746094 435.363281 C 108.542969 448.636719 109.636719 461.933594 109.742188 475.328125 C 109.84375 488.378906 111.046875 501.398438 110.871094 514.464844 C 110.816406 518.472656 110.941406 518.574219 115.171875 519.269531 C 118.664062 519.839844 122.199219 520.144531 125.714844 520.570312 Z M 147.402344 235.882812 C 154.230469 235.15625 160.335938 235.28125 166.441406 235.519531 C 169.898438 235.652344 169.957031 235.570312 170.015625 232.113281 C 170.125 225.671875 169.996094 219.21875 170.277344 212.78125 C 170.945312 197.496094 171.984375 182.222656 171.578125 166.90625 C 171.476562 163.042969 170.957031 159.152344 171.265625 155.324219 C 172.542969 139.550781 171.734375 123.753906 172.054688 107.976562 C 172.230469 99.28125 172.445312 90.566406 173.28125 81.921875 C 174.082031 73.683594 174.394531 65.5625 172.855469 57.394531 C 171.386719 49.625 169.589844 41.957031 166.675781 34.589844 C 164.816406 29.890625 161.632812 26.839844 156.34375 26.34375 C 153.300781 26.058594 150.261719 25.65625 147.253906 25.109375 C 135.191406 22.925781 124.378906 17.535156 113.671875 11.890625 C 112.78125 11.421875 112.101562 10.226562 110.464844 10.976562 C 111.703125 13.789062 113.023438 16.507812 114.117188 19.3125 C 118.988281 31.835938 122.933594 44.558594 122.285156 58.246094 C 122.066406 62.933594 121.101562 67.511719 120.328125 72.109375 C 117.835938 86.929688 113.761719 101.285156 107.46875 114.988281 C 102.9375 124.847656 96.820312 133.761719 90.929688 142.789062 C 86.078125 150.222656 84.609375 158.003906 85.960938 166.707031 C 88.28125 181.652344 91.65625 196.417969 93.808594 211.375 C 95.605469 223.859375 98.464844 236.03125 101.855469 248.136719 C 102.484375 250.378906 103.230469 251.453125 105.804688 250.980469 C 119.167969 248.523438 131.296875 243.082031 142.699219 235.890625 C 145.472656 234.144531 146.898438 231.511719 146.90625 228.183594 C 146.914062 224.960938 146.714844 221.761719 146.324219 218.550781 C 145.46875 211.472656 142.78125 204.84375 141.449219 197.878906 C 141.011719 195.59375 141.285156 193.113281 140.15625 190.863281 C 139.417969 191.074219 138.886719 191.082031 138.546875 191.339844 C 131.445312 196.734375 122.933594 196.863281 114.632812 197.824219 C 111.945312 198.132812 110.339844 197.121094 109.609375 194.507812 C 108.789062 191.5625 107.859375 188.648438 106.933594 185.734375 C 106.304688 183.75 106.828125 182.847656 109.046875 182.5625 C 117.699219 181.441406 126.070312 179.082031 134.34375 176.378906 C 137.855469 175.234375 137.816406 175.183594 137.171875 171.355469 C 134.390625 154.863281 133.757812 138.273438 137.132812 121.867188 C 139.371094 110.992188 141.890625 100.210938 143.15625 89.144531 C 145.292969 70.488281 150.15625 52.484375 157.191406 35.074219 C 157.578125 34.109375 157.605469 32.898438 159.507812 32.195312 C 153.816406 49.394531 148.386719 66.214844 145.894531 83.785156 C 143.421875 101.203125 141.164062 118.609375 144.070312 136.742188 C 147.347656 133.570312 149.132812 129.859375 153.121094 126.878906 C 152.664062 129.664062 151.449219 130.9375 150.484375 132.308594 C 148.632812 134.945312 146.679688 137.511719 144.882812 140.183594 C 142.9375 143.078125 142.414062 146.28125 143.101562 150.1875 C 147.253906 147.675781 151.285156 145.785156 156.808594 145.820312 C 153.953125 148.425781 151.105469 148.703125 148.671875 149.847656 C 144.625 151.742188 142.179688 154.367188 141.691406 159.304688 C 140.96875 166.582031 141.230469 173.773438 141.839844 180.980469 C 142.605469 189.964844 143.8125 198.835938 146.230469 207.613281 C 148.691406 216.558594 150.792969 225.765625 147.402344 235.882812 Z M 37.921875 191.25 C 37.136719 191.800781 37.042969 192.625 36.863281 193.390625 C 34 205.617188 32.378906 218.113281 28.761719 230.175781 C 28.109375 232.347656 29.109375 233.464844 31.125 234.121094 C 36.1875 235.769531 40.925781 238.207031 45.8125 240.289062 C 52.027344 242.9375 58.394531 245.277344 64.828125 247.351562 C 71.109375 249.378906 71.789062 248.84375 73.777344 242.75 C 73.875 242.441406 73.980469 242.136719 74.078125 241.832031 C 78.921875 226.46875 82.976562 210.882812 87.277344 195.367188 C 87.765625 193.59375 87.664062 191.875 87.363281 190.109375 C 86.003906 182.175781 84.601562 174.242188 83.339844 166.292969 C 82.632812 161.835938 81.921875 157.3125 83.757812 152.949219 C 84.632812 150.871094 83.542969 149.679688 82.332031 148.292969 C 67.367188 131.136719 58.65625 110.757812 52.800781 89.140625 C 47.234375 68.601562 46.167969 47.523438 47.386719 26.320312 C 47.542969 23.648438 48.433594 21.3125 50.230469 19.300781 C 50.910156 18.539062 52.109375 18.0625 51.914062 16.378906 C 40.957031 21.019531 29.601562 23.839844 18.085938 26.09375 C 16.277344 26.449219 14.949219 27.632812 13.800781 29.058594 C 11.859375 31.460938 10.296875 34.078125 9.175781 36.953125 C 5.925781 45.28125 3.839844 53.863281 4.097656 62.859375 C 4.515625 77.503906 4.84375 92.132812 4.421875 106.800781 C 4.007812 121.285156 5.148438 135.808594 4.835938 150.296875 C 4.34375 173.355469 4.832031 196.382812 5.550781 219.421875 C 5.695312 224.089844 6.042969 228.753906 6.269531 233.421875 C 6.34375 234.960938 6.894531 235.867188 8.628906 235.585938 C 13.75 234.765625 18.917969 234.960938 24.074219 234.898438 C 25.464844 234.878906 26.25 234.765625 26.597656 232.9375 C 28.964844 220.613281 31.546875 208.332031 34.074219 196.042969 C 35.691406 188.179688 38.117188 180.453125 37.144531 172.222656 C 36.636719 167.914062 36.519531 163.539062 36.519531 159.195312 C 36.519531 156.40625 35.671875 154.222656 33.617188 152.378906 C 32.539062 151.414062 31.59375 150.296875 30.675781 149.175781 C 29.875 148.199219 28.707031 147.390625 28.378906 145.679688 C 31.523438 146.972656 32.742188 149.992188 35.53125 151.238281 C 35.816406 145.921875 35.632812 144.128906 34.550781 142.050781 C 31.957031 137.054688 29.335938 132.070312 26.742188 127.070312 C 26.230469 126.078125 25.414062 125.15625 25.65625 123.023438 C 28.648438 128.152344 31.234375 132.582031 33.820312 137.011719 C 34.066406 125.894531 35.601562 115.191406 36.253906 104.4375 C 36.457031 101.027344 35.929688 97.6875 35.214844 94.371094 C 32.007812 79.414062 28.632812 64.5 24.242188 49.832031 C 23.175781 46.269531 22.027344 42.78125 20.289062 39.480469 C 18.902344 36.839844 17.707031 34.09375 16.425781 31.394531 C 19.574219 33.75 22.777344 38.816406 24.460938 44.738281 C 27.496094 55.417969 31.101562 65.953125 33.210938 76.886719 C 34.554688 83.84375 36.160156 90.742188 37.769531 97.644531 C 41.410156 113.242188 43.292969 129.015625 42.363281 145.089844 C 41.863281 153.777344 41.441406 162.457031 40.277344 171.09375 C 39.621094 175.953125 39.738281 176.082031 44.636719 177.304688 C 49.324219 178.480469 54.078125 179.371094 58.777344 180.5 C 61.84375 181.238281 66.171875 180.34375 67.625 183.199219 C 68.953125 185.800781 66.921875 189.382812 66.203125 192.492188 C 65.367188 196.109375 65.148438 196.222656 61.277344 196.292969 C 54.738281 196.410156 48.46875 195.109375 42.398438 192.71875 C 40.925781 192.140625 39.570312 191.144531 37.921875 191.25 Z M 85.121094 142.035156 C 85.800781 141.230469 86.257812 140.921875 86.382812 140.507812 C 88.46875 133.753906 90.609375 127.019531 93.113281 120.402344 C 93.496094 119.390625 93.394531 118.183594 93.453125 117.0625 C 94.625 95.324219 92.589844 73.6875 91.320312 52.023438 C 91.011719 46.730469 90.46875 41.449219 89.988281 36.167969 C 89.902344 35.253906 90.132812 33.945312 89.082031 33.613281 C 87.234375 33.03125 85.238281 33.257812 83.414062 33.753906 C 81.933594 34.160156 82.085938 35.835938 81.921875 37.039062 C 80.238281 49.464844 78.425781 61.878906 78.84375 74.484375 C 78.96875 78.339844 78.992188 82.210938 78.820312 86.0625 C 78.253906 98.777344 78.558594 111.453125 79.957031 124.113281 C 80.636719 130.226562 81.914062 136.117188 85.121094 142.035156 Z M 64.207031 10.507812 C 61.730469 12.492188 60.171875 13.84375 58.511719 15.046875 C 52.570312 19.355469 49.847656 24.578125 49.632812 32.46875 C 48.886719 60.0625 52.25 86.765625 63.480469 112.171875 C 68.101562 122.625 72.8125 133.0625 80.128906 142.027344 C 80.753906 142.792969 81.21875 143.851562 82.417969 144.023438 C 82.542969 143.609375 82.660156 143.4375 82.621094 143.316406 C 82.210938 142.101562 81.773438 140.894531 81.355469 139.683594 C 75.03125 121.453125 67.886719 103.503906 64.78125 84.265625 C 62.929688 72.824219 60.703125 61.445312 59.949219 49.867188 C 59.492188 42.804688 59.398438 35.738281 60.351562 28.65625 C 61.125 22.910156 62.886719 17.398438 64.207031 10.503906 Z M 76.816406 117.421875 C 77.34375 113.175781 76.417969 109.253906 76.226562 105.3125 C 75.8125 96.769531 76.636719 88.226562 76.316406 79.699219 C 75.84375 67.074219 76.265625 54.4375 79.183594 42.226562 C 80.988281 34.683594 79.769531 28.835938 75.078125 23.207031 C 74.976562 23.085938 74.917969 22.925781 74.859375 22.777344 C 74.074219 20.910156 72.9375 21.160156 71.40625 21.976562 C 63.265625 26.339844 62.457031 27.625 62.332031 37.039062 C 62.316406 38.164062 62.335938 39.292969 62.339844 40.421875 C 62.34375 55.472656 64.722656 70.234375 67.539062 84.972656 C 69.414062 94.796875 71.40625 104.554688 74.824219 113.976562 C 75.242188 115.128906 75.367188 116.464844 76.816406 117.421875 Z M 96.230469 109.65625 C 106.921875 83.546875 110.242188 56.546875 106.707031 28.335938 C 103.113281 29.324219 100.621094 27.488281 98.117188 25.695312 C 97.339844 25.140625 96.3125 24.242188 95.679688 25.398438 C 93.898438 28.652344 90.679688 31.144531 91.40625 35.691406 C 93.328125 47.757812 93.867188 59.980469 94.9375 72.144531 C 95.769531 81.585938 96.492188 91.042969 96.136719 100.546875 C 96.023438 103.574219 95.082031 106.578125 96.230469 109.65625 Z M 108.578125 12.804688 C 107.289062 14.441406 107.75 15.925781 107.722656 17.296875 C 107.605469 22.632812 108.609375 27.878906 109.328125 33.128906 C 112.25 54.53125 110.140625 75.515625 104.117188 96.136719 C 100.871094 107.25 96.875 118.128906 92.859375 128.992188 C 91.703125 132.117188 90.421875 135.214844 90.089844 138.71875 C 90.605469 138.515625 91.007812 138.484375 91.140625 138.28125 C 97.457031 128.742188 103.464844 119 107.726562 108.359375 C 114.15625 92.300781 118.25 75.625 120.089844 58.40625 C 120.367188 55.832031 120.355469 53.277344 120.109375 50.703125 C 119.0625 39.714844 116.078125 29.230469 111.882812 19.066406 C 111.035156 17.007812 110.402344 14.808594 108.574219 12.804688 Z M 138.503906 178.511719 C 129.324219 183.472656 119.15625 184.386719 109.257812 186.585938 C 109.390625 189.050781 110.449219 191.070312 111.003906 193.214844 C 111.621094 195.59375 113.046875 196.664062 115.625 196.195312 C 119.40625 195.507812 123.210938 194.882812 127.027344 194.417969 C 131.550781 193.871094 134.941406 191.070312 138.65625 188.898438 C 139.546875 188.378906 140.121094 187.664062 140.035156 186.570312 C 139.816406 183.902344 140.003906 181.152344 138.503906 178.511719 Z M 65.992188 184.617188 C 57.527344 184.410156 49.355469 183.058594 41.453125 180.308594 C 40.09375 179.835938 39.34375 180.304688 39.179688 181.792969 C 38.246094 190.234375 36.03125 188.636719 44.714844 192.0625 C 46.347656 192.710938 48.046875 193.238281 49.757812 193.636719 C 53.667969 194.542969 57.601562 195.296875 61.652344 194.457031 C 62.917969 194.191406 64.265625 194.148438 64.492188 192.449219 C 64.824219 189.945312 66.109375 187.613281 65.992188 184.617188 Z M 84.507812 19.816406 C 82.449219 20.140625 80.097656 19.449219 77.714844 19.335938 C 75.929688 19.25 75.332031 20.265625 76.378906 21.757812 C 78.214844 24.367188 80.234375 26.851562 82.253906 29.328125 C 84.273438 31.804688 86.878906 32.105469 89.183594 29.953125 C 91.421875 27.859375 92.933594 25.179688 94.183594 22.402344 C 94.851562 20.914062 94.246094 19.875 92.535156 19.832031 C 89.980469 19.769531 87.421875 19.816406 84.507812 19.816406 Z M 38.671875 161.945312 C 41.875 146.246094 41.164062 116.839844 37.871094 112.105469 C 35.355469 128.246094 37.585938 144.535156 38.671875 161.945312 Z M 106.152344 7.355469 C 105.757812 7.171875 105.367188 6.992188 104.976562 6.808594 C 101.308594 10.007812 97.640625 13.203125 93.957031 16.417969 C 95.136719 17.796875 96.898438 18.304688 96.917969 19.945312 C 96.957031 23.496094 100.039062 24.105469 102.183594 25.535156 C 103.648438 26.507812 104.667969 25.644531 104.8125 24.03125 C 105.300781 18.476562 105.710938 12.914062 106.152344 7.355469 Z M 140.199219 119.613281 C 136.824219 134.359375 136.6875 149.140625 138.601562 164 C 140.601562 149.246094 141.726562 134.449219 140.199219 119.613281 Z M 64.289062 23.511719 C 69.433594 20.730469 73.328125 17.648438 78.636719 16.546875 C 75.851562 13.167969 73.078125 10.527344 70.125 8.0625 C 68.992188 7.117188 67.941406 7.160156 67.570312 8.652344 C 66.410156 13.289062 64.988281 17.878906 64.289062 23.511719 Z M 166.199219 238.507812 L 166.265625 237.5 C 161.15625 237.5 156.042969 237.484375 150.933594 237.515625 C 150.171875 237.519531 149.21875 237.535156 149.339844 238.730469 C 149.417969 239.464844 150.023438 239.933594 150.660156 239.898438 C 155.855469 239.585938 161.152344 240.148438 166.199219 238.507812 Z M 25.519531 238 C 20.980469 237.191406 16.484375 237.269531 11.996094 237.917969 C 16.515625 238.738281 21.035156 238.640625 25.519531 238 Z M 108.878906 183.683594 C 112.730469 184.875 114.023438 184.621094 118.847656 182.230469 C 114.953125 182.796875 111.917969 183.238281 108.878906 183.683594 Z M 52.195312 181.035156 C 49.167969 180.332031 46.332031 178.765625 43.160156 179.03125 C 46.042969 180.40625 49.054688 181.128906 52.195312 181.035156 Z M 52.195312 181.035156 " fill-opacity="1" fill-rule="nonzero"/></g><path fill="#000000" d="M 125.714844 520.566406 C 123.367188 502.808594 123.300781 484.960938 123.136719 467.078125 C 122.957031 447.761719 121.707031 428.457031 120.921875 409.144531 C 120.882812 408.179688 120.808594 407.214844 120.800781 406.25 C 120.550781 379.191406 118.972656 352.148438 120.316406 325.082031 C 120.316406 329.566406 120.414062 334.050781 120.300781 338.53125 C 119.773438 359.480469 120.835938 380.410156 121.625 401.316406 C 122.3125 419.496094 123.113281 437.683594 123.832031 455.867188 C 124.289062 467.449219 124.203125 479.0625 124.195312 490.660156 C 124.1875 496.804688 124.777344 502.875 125.671875 508.933594 C 126.242188 512.769531 126.582031 516.613281 125.691406 520.476562 C 125.703125 520.5 125.714844 520.566406 125.714844 520.566406 Z M 125.714844 520.566406 " fill-opacity="1" fill-rule="nonzero"/><path fill="#000000" d="M 59.113281 341.957031 L 59.113281 346.574219 C 59.09375 346.574219 59.074219 346.574219 59.050781 346.574219 L 59.050781 341.953125 C 59.070312 341.953125 59.089844 341.957031 59.113281 341.957031 Z M 59.113281 341.957031 " fill-opacity="1" fill-rule="nonzero"/><path fill="#000000" d="M 60.167969 354.753906 L 60.167969 357.46875 C 60.097656 357.46875 60.027344 357.46875 59.953125 357.46875 L 59.953125 354.820312 Z M 60.167969 354.753906 " fill-opacity="1" fill-rule="nonzero"/><path fill="#000000" d="M 93.898438 155.621094 C 93.953125 157.5625 92.589844 159.195312 90.800781 159.222656 C 88.824219 159.25 87.878906 158.140625 87.800781 156.242188 C 87.71875 154.328125 89.398438 151.917969 90.84375 151.832031 C 92.203125 151.746094 93.847656 153.78125 93.898438 155.621094 Z M 93.898438 155.621094 " fill-opacity="1" fill-rule="nonzero"/><g clip-path="url(#b24ca2d1c3)"><g transform="matrix(1, 0, 0, 1, 35, 0)"><g clip-path="url(#9ac99a5223)"><g clip-path="url(#85a0b3a9ee)"><path fill="#000000" d="M 506.859375 471.816406 C 491.078125 470.980469 476.972656 465.332031 463.59375 457.804688 C 455.757812 453.414062 448.546875 447.871094 441.335938 442.433594 C 415.730469 423.089844 394.9375 399.457031 377.902344 372.375 C 365.152344 351.878906 354.285156 330.441406 345.089844 308.066406 C 336.101562 286.523438 327.636719 264.671875 320.007812 242.605469 C 315.617188 230.058594 312.585938 217.199219 310.496094 204.023438 C 308.617188 192.3125 306.214844 180.808594 302.660156 169.515625 C 297.433594 153.203125 290.222656 137.726562 280.609375 123.507812 C 276.117188 116.917969 270.890625 110.855469 265.664062 104.894531 C 263.472656 102.488281 262.425781 99.5625 262.21875 96.425781 C 262.007812 94.019531 262.21875 91.507812 262.738281 89.105469 C 262.949219 88.269531 263.367188 87.328125 261.800781 87.429688 C 261.066406 87.429688 261.277344 86.910156 261.382812 86.488281 C 262.007812 84.609375 262.53125 82.832031 263.261719 80.949219 C 266.292969 73 269.636719 65.261719 272.25 57.210938 C 274.546875 50.101562 276.21875 42.886719 276.640625 35.355469 C 276.847656 30.859375 276.535156 26.46875 276.21875 22.078125 C 276.011719 18.625 276.117188 15.175781 276.953125 11.828125 C 277.265625 10.367188 277.683594 8.902344 277.789062 7.4375 C 277.894531 4.71875 276.742188 3.152344 274.128906 2.628906 C 273.191406 2.417969 272.25 2.3125 271.414062 1.582031 C 270.996094 1.164062 270.367188 1.058594 269.847656 0.953125 C 268.488281 0.640625 267.859375 0.851562 267.234375 2.105469 C 266.5 3.359375 265.769531 4.613281 265.246094 5.871094 C 263.890625 8.902344 262.007812 11.621094 259.605469 13.921875 C 257.097656 16.324219 254.484375 18.730469 251.871094 21.136719 C 247.691406 25.003906 243.929688 29.1875 240.898438 33.996094 C 240.167969 35.148438 239.332031 35.355469 238.183594 35.253906 C 234 34.835938 229.820312 33.894531 226.058594 32.011719 C 223.238281 30.546875 220.417969 29.1875 217.699219 27.621094 C 212.890625 25.003906 207.769531 24.167969 202.335938 24.378906 C 200.875 24.378906 200.039062 24.902344 199.410156 26.261719 C 198.15625 28.980469 196.796875 31.699219 195.859375 34.519531 C 193.453125 41.316406 193.769531 48.007812 196.796875 54.597656 C 198.574219 58.257812 200.5625 61.8125 202.652344 65.367188 C 205.261719 69.65625 207.457031 73.941406 209.128906 78.648438 C 210.28125 81.890625 210.90625 85.128906 211.429688 88.476562 C 211.535156 89 211.953125 89.730469 210.90625 90.046875 C 210.382812 90.253906 210.59375 90.777344 210.699219 91.195312 C 211.847656 95.691406 211.847656 100.292969 210.59375 104.789062 C 211.117188 106.566406 209.757812 107.71875 208.921875 108.867188 C 199.726562 121.625 193.453125 135.636719 189.484375 150.695312 C 186.976562 160 185.199219 169.410156 183.632812 178.820312 C 182.898438 183.214844 182.691406 187.605469 182.167969 192.101562 C 181.226562 202.140625 180.183594 212.179688 179.242188 222.320312 C 178.511719 230.058594 177.777344 237.691406 177.046875 245.429688 C 174.121094 275.859375 166.910156 305.136719 155.101562 333.265625 C 143.816406 360.140625 129.707031 385.445312 111.835938 408.554688 C 101.597656 421.730469 90.308594 434.066406 77.246094 444.734375 C 65.648438 454.144531 52.898438 461.570312 38.371094 465.75 C 32.414062 467.527344 26.355469 468.574219 20.1875 468.886719 C 15.484375 469.097656 10.785156 468.679688 6.082031 467.632812 C 4.929688 467.320312 3.78125 467.007812 2.632812 466.484375 C 1.484375 465.960938 1.066406 466.273438 1.167969 467.425781 C 1.273438 468.367188 1.484375 469.203125 1.796875 470.144531 C 3.992188 476.105469 7.753906 480.914062 12.976562 484.46875 C 17.367188 487.398438 22.175781 489.382812 27.191406 490.953125 C 32.414062 492.625 37.535156 494.195312 42.761719 495.761719 C 48.507812 497.433594 53.941406 499.632812 59.0625 502.769531 C 61.257812 504.023438 63.453125 505.070312 65.75 506.21875 C 72.230469 509.566406 79.128906 510.191406 86.234375 509.355469 C 91.042969 508.832031 95.640625 507.683594 100.34375 506.742188 C 111.210938 504.546875 122.183594 503.5 133.261719 505.070312 C 140.261719 506.113281 146.949219 508.101562 153.324219 511.132812 C 159.699219 514.164062 166.179688 516.882812 173.078125 518.347656 C 179.660156 519.707031 186.242188 520.019531 192.933594 519.707031 C 202.652344 519.289062 212.160156 517.824219 221.773438 517.09375 C 228.359375 516.570312 234.835938 517.199219 241.210938 518.347656 C 248.320312 519.707031 255.320312 521.378906 262.53125 522.53125 C 275.070312 524.621094 287.402344 523.785156 299.523438 520.542969 C 310.078125 517.722656 320.007812 513.328125 329.726562 508.308594 C 334.117188 506.007812 338.609375 503.710938 343.3125 501.929688 C 352.195312 498.375 361.496094 498.273438 370.796875 500.257812 C 376.019531 501.410156 381.039062 502.871094 386.261719 503.710938 C 397.863281 505.589844 409.042969 504.546875 419.703125 498.898438 C 425.347656 495.972656 430.886719 492.730469 436.320312 489.488281 C 440.394531 487.082031 444.574219 484.992188 449.171875 483.632812 C 452.097656 482.796875 455.023438 482.378906 458.054688 482.378906 C 459.101562 482.378906 460.042969 482.691406 460.980469 482.898438 C 467.671875 484.574219 474.460938 485.828125 481.359375 485.828125 C 491.183594 485.828125 499.125 481.75 505.5 474.535156 C 506.753906 473.59375 506.753906 473.59375 506.859375 471.816406 Z M 307.46875 357.839844 C 307.46875 358.78125 307.46875 359.40625 307.46875 359.929688 C 307.675781 362.542969 307.886719 365.054688 308.199219 367.667969 C 308.929688 376.554688 310.289062 385.234375 311.75 394.019531 C 312.796875 400.398438 314.050781 406.671875 315.828125 412.945312 C 320.007812 427.585938 324.710938 442.015625 328.785156 456.652344 C 330.980469 464.707031 333.800781 472.546875 335.578125 480.601562 C 336.832031 486.351562 337.5625 491.996094 336.308594 497.851562 C 335.890625 500.050781 334.847656 501.722656 333.277344 503.082031 C 330.039062 505.800781 326.589844 508.207031 322.621094 509.878906 C 314.992188 513.222656 307.152344 516.046875 299.105469 518.035156 C 287.195312 520.960938 275.175781 521.695312 263.15625 519.183594 C 256.46875 517.722656 249.78125 516.152344 243.09375 514.6875 C 235.359375 513.015625 227.523438 512.492188 219.582031 513.539062 C 211.011719 514.582031 202.441406 516.257812 193.769531 516.882812 C 187.707031 517.300781 181.644531 517.40625 175.585938 516.464844 C 167.746094 515.210938 160.429688 512.492188 153.640625 508.726562 C 146.324219 504.753906 138.695312 501.511719 130.855469 498.691406 C 125.320312 496.703125 119.78125 496.597656 114.242188 498.480469 C 112.253906 499.210938 110.269531 500.050781 108.285156 500.886719 C 104.207031 502.871094 99.925781 504.230469 95.535156 505.171875 C 89.160156 506.53125 82.679688 507.054688 76.097656 506.21875 C 70.976562 505.589844 66.273438 503.605469 61.988281 500.675781 C 55.929688 496.597656 49.242188 493.878906 42.238281 491.996094 C 36.910156 490.636719 31.578125 489.175781 26.25 487.710938 C 21.652344 486.457031 17.472656 484.363281 13.605469 481.4375 C 9.949219 478.71875 7.125 475.371094 5.035156 471.398438 C 4.617188 470.667969 4.199219 469.933594 4.304688 468.886719 C 9.320312 470.5625 14.335938 471.292969 19.457031 471.292969 C 25.414062 471.292969 31.265625 470.457031 37.117188 468.992188 C 51.539062 465.4375 64.601562 458.746094 76.410156 449.753906 C 89.054688 440.238281 100.132812 428.945312 110.164062 416.710938 C 129.289062 393.390625 144.339844 367.5625 156.355469 339.957031 C 169.3125 310.050781 176.941406 278.890625 179.867188 246.582031 C 180.496094 239.367188 181.226562 232.152344 181.855469 224.9375 C 182.378906 219.394531 183.316406 213.851562 183.632812 208.308594 C 184.46875 194.296875 186.242188 180.390625 188.855469 166.484375 C 190.839844 156.234375 193.351562 146.09375 197.113281 136.261719 C 201.082031 125.910156 207.039062 116.710938 212.578125 107.296875 C 212.789062 106.984375 212.996094 106.460938 213.519531 106.460938 C 214.878906 106.359375 216.234375 106.042969 217.90625 106.148438 C 216.027344 108.238281 214.355469 110.015625 212.996094 112.003906 C 211.636719 114.09375 210.59375 116.394531 209.652344 118.695312 C 208.710938 120.996094 207.980469 123.296875 207.351562 125.597656 C 206.726562 127.898438 205.996094 130.199219 205.785156 132.707031 C 206.308594 131.871094 206.621094 131.035156 206.933594 130.199219 C 208.1875 126.328125 209.546875 122.460938 211.21875 118.695312 C 213.101562 114.410156 215.714844 110.75 218.847656 107.296875 C 219.789062 106.148438 220.9375 105.625 222.402344 105.625 C 223.132812 105.625 223.96875 105.417969 224.699219 105.730469 C 224.804688 106.566406 224.28125 107.089844 223.96875 107.71875 C 219.683594 115.664062 216.027344 123.820312 212.789062 132.183594 C 207.351562 146.300781 203.277344 160.730469 201.082031 175.683594 C 198.785156 191.578125 197.949219 207.683594 197.949219 223.679688 C 197.949219 224.097656 197.632812 224.621094 198.367188 224.9375 C 198.46875 224.097656 198.679688 223.367188 198.679688 222.636719 C 198.992188 218.035156 199.304688 213.433594 199.621094 208.9375 C 200.140625 200.257812 200.875 191.683594 201.917969 183.003906 C 203.800781 167.738281 207.457031 152.890625 212.371094 138.25 C 216.027344 127.480469 220.625 117.128906 225.953125 107.195312 C 226.582031 105.9375 227.3125 105.417969 228.777344 105.417969 C 231.074219 105.417969 233.375 105.207031 235.671875 105.101562 C 237.660156 105 237.660156 105 237.867188 106.984375 C 238.179688 110.644531 238.390625 114.304688 238.496094 117.964844 C 238.808594 133.648438 237.242188 149.230469 236.089844 164.808594 C 235.046875 178.71875 234 192.730469 232.851562 206.636719 C 232.015625 216.78125 231.179688 226.921875 230.136719 237.066406 C 228.777344 250.03125 227.207031 262.996094 225.117188 275.859375 C 223.132812 287.988281 221.042969 300.117188 218.011719 312.144531 C 213.625 329.710938 207.5625 346.859375 201.292969 363.800781 C 197.84375 373 194.394531 382.203125 190.945312 391.40625 C 190.632812 392.136719 190.109375 392.867188 190.527344 393.914062 C 191.261719 393.289062 191.46875 392.449219 191.78125 391.824219 C 193.976562 386.804688 196.171875 381.785156 198.261719 376.871094 C 206.203125 358.675781 213.101562 340.0625 218.640625 320.925781 C 225.433594 297.609375 228.984375 273.664062 231.910156 249.613281 C 233.164062 239.050781 234.210938 228.386719 235.046875 217.71875 C 236.089844 205.171875 236.925781 192.519531 237.867188 179.972656 C 238.601562 170.144531 239.121094 160.210938 239.75 150.378906 C 240.480469 139.503906 240.898438 128.628906 240.375 117.652344 C 240.273438 116.292969 240.167969 115.035156 240.167969 113.574219 C 240.792969 113.886719 240.792969 114.515625 241.003906 114.933594 C 242.78125 119.742188 244.554688 124.449219 246.4375 129.257812 C 251.976562 143.480469 257.304688 157.804688 261.589844 172.445312 C 267.128906 191.894531 270.785156 211.65625 272.457031 231.734375 C 273.503906 244.28125 273.710938 256.828125 273.085938 269.375 C 272.25 284.433594 270.160156 299.28125 268.277344 314.234375 C 268.175781 315.070312 268.070312 315.910156 268.175781 316.847656 C 269.011719 316.535156 268.90625 316.011719 269.011719 315.699219 C 269.636719 312.144531 270.265625 308.691406 270.996094 305.136719 C 273.398438 292.902344 274.652344 280.460938 275.382812 268.015625 C 276.117188 255.15625 275.800781 242.398438 274.652344 229.535156 C 273.609375 218.765625 272.144531 207.996094 270.054688 197.433594 C 266.1875 177.777344 260.230469 158.640625 252.917969 140.027344 C 249.363281 130.929688 245.496094 122.042969 242.152344 112.839844 C 241.316406 110.644531 240.585938 108.554688 239.957031 106.359375 C 239.539062 105 239.644531 104.894531 241.109375 104.789062 C 241.945312 104.683594 242.675781 104.683594 243.511719 104.683594 C 244.972656 104.683594 246.644531 103.847656 247.898438 104.578125 C 249.15625 105.3125 249.886719 106.777344 250.828125 108.03125 C 258.039062 117.023438 264.308594 126.539062 269.53125 136.890625 C 275.59375 148.917969 280.402344 161.570312 284.582031 174.324219 C 293.253906 200.675781 300.777344 227.339844 308.722656 253.902344 C 312.378906 266.238281 315.617188 278.789062 319.695312 291.023438 C 326.171875 310.992188 335.472656 329.816406 345.714844 348.011719 C 345.925781 348.324219 346.027344 348.636719 346.445312 348.742188 C 346.863281 348.011719 346.34375 347.488281 346.027344 346.964844 C 343.730469 342.050781 341.429688 337.136719 339.027344 332.21875 C 331.710938 317.058594 325.128906 301.6875 320.53125 285.480469 C 313.738281 261.847656 307.152344 238.214844 300.464844 214.582031 C 295.554688 197.539062 290.640625 180.390625 284.683594 163.660156 C 277.058594 142.222656 267.128906 122.042969 251.558594 105.101562 C 251.347656 104.894531 251.035156 104.578125 251.347656 104.058594 C 254.378906 103.742188 257.515625 103.742188 260.648438 103.742188 C 261.484375 103.742188 261.902344 104.265625 262.425781 104.894531 C 266.5 109.703125 270.578125 114.515625 274.445312 119.53125 C 287.089844 136.367188 296.285156 154.980469 302.660156 175.058594 C 304.226562 180.078125 305.796875 184.992188 306.632812 190.21875 C 307.886719 198.480469 309.140625 206.847656 310.707031 215 C 312.902344 226.191406 316.035156 237.167969 319.695312 247.941406 C 326.171875 267.285156 333.695312 286.105469 341.429688 304.929688 C 350.835938 327.722656 361.496094 349.789062 374.246094 370.910156 C 385.320312 389.210938 398.382812 406.042969 413.328125 421.519531 C 427.957031 436.785156 445.304688 448.707031 462.550781 460.628906 C 467.773438 464.289062 473.730469 466.691406 479.792969 468.886719 C 486.480469 471.398438 493.273438 473.386719 500.484375 473.59375 C 501.632812 473.59375 502.679688 473.59375 503.828125 473.59375 C 501.007812 475.582031 498.289062 477.464844 495.257812 478.925781 C 488.78125 481.855469 482.089844 483.214844 474.984375 482.378906 C 465.789062 481.332031 456.800781 479.242188 448.128906 475.894531 C 422.421875 465.75 401.519531 449.542969 385.738281 426.75 C 378.109375 415.769531 371.421875 404.265625 366.199219 391.929688 C 365.675781 390.777344 365.257812 389.417969 364.210938 388.164062 C 364.109375 389.417969 364.316406 390.148438 364.527344 390.882812 C 366.511719 397.992188 369.019531 404.894531 371.632812 411.796875 C 377.796875 427.898438 386.574219 442.222656 399.429688 453.9375 C 407.683594 461.570312 416.882812 467.632812 427.4375 471.503906 C 430.570312 472.652344 433.707031 474.011719 436.839844 475.265625 C 438.722656 476 440.394531 477.148438 441.542969 478.824219 C 442.902344 480.703125 442.902344 482.585938 441.648438 484.46875 C 441.023438 485.410156 440.289062 486.140625 439.351562 486.664062 C 433.601562 489.90625 428.0625 493.460938 422.210938 496.492188 C 414.6875 500.46875 406.746094 501.828125 398.488281 500.46875 C 379.050781 497.539062 362.855469 488.757812 350.207031 473.59375 C 338.609375 459.6875 329.933594 444.105469 323.769531 427.0625 C 318.542969 412.527344 315.410156 397.46875 312.585938 382.308594 C 310.601562 374.257812 309.453125 366.203125 307.46875 357.839844 Z M 267.339844 17.894531 C 268.175781 17.371094 268.277344 16.847656 268.488281 16.429688 C 269.949219 13.1875 271.101562 9.738281 271.621094 6.183594 C 271.9375 4.511719 272.457031 4.09375 273.921875 4.40625 C 275.488281 4.824219 276.011719 5.453125 275.488281 6.914062 C 273.710938 12.769531 273.191406 18.835938 273.921875 25.003906 C 274.339844 28.140625 274.546875 31.382812 274.234375 34.625 C 273.710938 41.003906 272.25 47.171875 270.367188 53.34375 C 267.339844 63.382812 263.261719 73 260.128906 82.933594 C 259.605469 84.503906 259.605469 86.804688 258.246094 87.535156 C 256.886719 88.371094 254.796875 88.058594 253.019531 88.164062 C 245.183594 88.582031 237.34375 89.105469 229.402344 89.207031 C 225.015625 89.3125 220.519531 89.523438 216.132812 89.730469 C 213.9375 89.835938 213.9375 89.941406 213.9375 87.640625 C 213.9375 87.011719 213.9375 86.386719 213.832031 85.757812 C 213.625 84.816406 214.042969 84.191406 214.773438 83.5625 C 217.28125 81.679688 219.371094 79.273438 221.253906 76.765625 C 224.492188 72.476562 227.207031 67.773438 229.300781 62.859375 C 231.703125 57.316406 233.898438 51.773438 236.195312 46.230469 C 239.957031 37.03125 245.496094 29.1875 253.019531 22.601562 C 255.527344 20.402344 257.933594 18.207031 260.335938 15.90625 C 263.15625 13.292969 265.144531 10.261719 266.5 6.707031 C 266.816406 5.871094 267.234375 5.03125 267.546875 4.09375 C 267.964844 3.046875 268.800781 3.464844 269.53125 3.671875 C 270.265625 3.882812 270.578125 4.195312 270.367188 5.136719 C 269.949219 7.4375 269.324219 9.632812 268.695312 11.828125 C 268.382812 13.710938 267.652344 15.59375 267.339844 17.894531 Z M 213.308594 81.472656 C 211.847656 75.613281 208.921875 70.699219 205.679688 65.996094 C 204.53125 64.21875 203.277344 62.441406 202.128906 60.664062 C 200.351562 57.839844 198.679688 54.910156 197.53125 51.667969 C 196.277344 48.21875 195.753906 44.664062 196.378906 40.898438 C 197.113281 36.296875 198.679688 32.011719 200.457031 27.828125 C 200.769531 27.097656 201.292969 26.679688 202.023438 26.46875 C 204.007812 25.839844 206.097656 25.839844 208.1875 26.15625 C 211.742188 26.78125 215.085938 28.140625 218.117188 30.023438 C 223.238281 33.058594 228.253906 36.402344 234.316406 37.554688 C 229.507812 38.703125 224.699219 38.496094 219.894531 37.972656 C 224.492188 39.957031 229.402344 39.539062 234.628906 39.121094 C 232.539062 40.585938 230.554688 41.316406 228.671875 42.050781 C 226.6875 42.78125 224.597656 42.78125 222.296875 43.410156 C 223.238281 44.351562 224.074219 44.140625 224.804688 44.140625 C 229.507812 43.828125 233.6875 42.152344 237.449219 39.433594 C 230.34375 53.761719 223.761719 68.503906 213.308594 81.472656 Z M 261.695312 101.757812 C 245.390625 101.652344 229.089844 102.175781 212.789062 103.742188 C 213.414062 100.398438 212.890625 100.921875 215.921875 100.710938 C 223.027344 100.398438 230.238281 100.082031 237.34375 99.664062 C 237.761719 99.664062 238.390625 99.875 238.703125 99.246094 C 238.390625 98.828125 237.972656 99.039062 237.554688 99.039062 C 229.925781 99.140625 222.402344 98.722656 214.773438 99.5625 C 214.355469 99.5625 213.832031 99.875 213.625 99.351562 C 213.414062 98.722656 213.414062 97.886719 213.625 97.261719 C 213.832031 96.632812 214.460938 96.945312 214.980469 96.945312 C 219.160156 96.738281 223.445312 96.527344 227.625 96.109375 C 228.148438 96.109375 228.777344 96.214844 229.195312 95.273438 C 228.359375 95.273438 227.625 95.273438 226.894531 95.273438 C 223.550781 95.378906 220.3125 95.484375 216.96875 95.484375 C 215.816406 95.484375 214.25 96.214844 213.414062 95.378906 C 212.683594 94.542969 212.683594 92.972656 212.265625 91.71875 C 228.566406 91.40625 244.765625 90.253906 260.964844 89.3125 C 260.753906 90.988281 260.546875 92.449219 260.441406 93.914062 C 260.441406 95.066406 260.023438 95.378906 258.976562 95.378906 C 256.363281 95.273438 253.648438 95.273438 251.035156 95.378906 C 248.421875 95.484375 245.808594 95.585938 243.199219 95.796875 C 243.40625 96.527344 243.824219 96.425781 244.136719 96.425781 C 245.808594 96.527344 247.378906 96.527344 249.050781 96.632812 C 252.394531 96.738281 255.738281 96.738281 259.1875 96.738281 C 260.023438 96.738281 260.648438 96.945312 260.648438 97.886719 C 260.753906 99.246094 261.277344 100.605469 261.695312 101.757812 Z M 261.695312 101.757812 " fill-opacity="1" fill-rule="nonzero"/></g><path fill="#000000" d="M 243.300781 327.828125 C 242.464844 328.457031 242.570312 329.082031 242.464844 329.710938 C 240.792969 339.75 239.121094 349.789062 237.34375 359.824219 C 232.226562 388.269531 224.492188 415.976562 212.265625 442.222656 C 205.679688 456.445312 197.632812 469.828125 188.4375 482.480469 C 183.003906 490.011719 177.570312 497.433594 172.136719 504.964844 C 171.613281 505.589844 170.984375 506.21875 170.882812 507.265625 C 171.824219 507.367188 172.136719 506.636719 172.554688 506.21875 C 178.613281 499.734375 184.152344 492.835938 189.691406 485.828125 C 209.757812 460.417969 222.609375 431.558594 231.179688 400.605469 C 235.464844 385.027344 238.496094 369.238281 240.792969 353.238281 C 241.839844 346.023438 242.78125 338.914062 243.300781 331.699219 C 243.40625 330.546875 243.511719 329.292969 243.300781 327.828125 Z M 243.300781 327.828125 " fill-opacity="1" fill-rule="nonzero"/><path fill="#000000" d="M 238.496094 429.570312 C 239.226562 429.046875 239.121094 428.316406 239.332031 427.691406 C 245.289062 405.941406 250.410156 384.085938 254.378906 361.917969 C 256.363281 350.9375 257.722656 339.855469 258.875 328.664062 C 259.917969 318.730469 260.753906 308.796875 261.277344 298.863281 C 261.902344 288.722656 262.21875 278.472656 262.425781 268.332031 C 262.636719 255.15625 262.636719 242.085938 262.425781 229.015625 C 262.320312 221.695312 262.007812 214.375 261.800781 207.054688 C 261.800781 205.589844 261.484375 204.128906 261.277344 202.558594 C 260.335938 203.082031 260.648438 203.8125 260.648438 204.335938 C 260.546875 207.683594 260.546875 210.925781 260.546875 214.269531 C 260.546875 228.386719 260.546875 242.503906 260.441406 256.621094 C 260.335938 270.527344 259.8125 284.433594 258.976562 298.339844 C 258.246094 310.679688 257.097656 322.914062 255.738281 335.148438 C 253.855469 352.089844 250.929688 368.820312 247.378906 385.445312 C 244.347656 399.5625 241.421875 413.78125 238.390625 427.898438 C 238.285156 428.421875 237.972656 428.945312 238.496094 429.570312 Z M 238.496094 429.570312 " fill-opacity="1" fill-rule="nonzero"/><path fill="#000000" d="M 190.320312 254.421875 C 189.378906 256.097656 189.484375 257.664062 189.273438 259.234375 C 182.480469 302.628906 167.433594 342.886719 145.382812 380.738281 C 137.441406 394.332031 128.871094 407.402344 120.511719 420.683594 C 119.363281 422.460938 118.316406 424.238281 117.273438 426.015625 C 117.0625 426.433594 116.644531 426.75 116.855469 427.375 C 117.480469 427.480469 117.691406 427.0625 117.898438 426.75 C 132.320312 406.984375 145.90625 386.699219 156.984375 364.84375 C 169.417969 340.480469 178.929688 314.96875 185.09375 288.199219 C 187.496094 277.742188 189.378906 267.179688 190.738281 256.515625 C 190.738281 255.78125 190.84375 255.15625 190.320312 254.421875 Z M 190.320312 254.421875 " fill-opacity="1" fill-rule="nonzero"/><path fill="#000000" d="M 184.257812 410.019531 C 183.421875 410.539062 183.316406 411.378906 183.003906 412.109375 C 178.40625 421.730469 174.644531 431.765625 170.148438 441.386719 C 164.195312 454.355469 157.085938 466.589844 147.785156 477.359375 C 142.980469 482.902344 137.753906 488.128906 131.691406 492.414062 C 131.484375 492.519531 131.378906 492.730469 131.171875 493.042969 C 132.320312 493.042969 133.050781 492.519531 133.886719 492.101562 C 136.8125 490.535156 139.320312 488.441406 141.828125 486.246094 C 152.28125 476.941406 160.429688 465.855469 167.015625 453.621094 C 174.226562 440.238281 179.660156 426.226562 184.363281 411.796875 C 184.363281 411.273438 184.675781 410.75 184.257812 410.019531 Z M 184.257812 410.019531 " fill-opacity="1" fill-rule="nonzero"/><path fill="#000000" d="M 389.292969 411.480469 C 389.292969 412.738281 389.816406 413.050781 390.128906 413.46875 C 405.28125 430.511719 421.375 446.511719 440.1875 459.476562 C 444.46875 462.40625 448.964844 465.125 453.5625 467.632812 C 454.1875 467.949219 454.816406 468.679688 455.757812 468.050781 C 455.546875 467.007812 454.605469 466.796875 453.875 466.378906 C 445.203125 461.253906 436.945312 455.609375 429.214844 449.125 C 420.957031 442.328125 413.328125 434.90625 405.804688 427.269531 C 401.207031 422.671875 396.710938 417.859375 391.800781 413.574219 C 391.175781 413.050781 390.335938 412.421875 389.292969 411.480469 Z M 389.292969 411.480469 " fill-opacity="1" fill-rule="nonzero"/><path fill="#000000" d="M 232.121094 167.007812 C 231.179688 168.574219 231.179688 170.246094 230.972656 171.710938 C 230.03125 178.820312 229.195312 185.933594 228.253906 193.042969 C 226.476562 207.367188 224.699219 221.589844 222.402344 235.8125 C 222.089844 238.109375 221.671875 240.308594 221.355469 242.605469 C 221.253906 243.339844 221.042969 244.070312 221.355469 244.90625 C 221.984375 244.488281 221.984375 243.863281 222.089844 243.339844 C 224.28125 235.390625 225.535156 227.234375 226.789062 219.078125 C 228.777344 205.800781 230.136719 192.414062 231.390625 178.925781 C 231.703125 175.476562 232.015625 172.128906 232.226562 168.679688 C 232.433594 168.261719 232.539062 167.84375 232.121094 167.007812 Z M 232.121094 167.007812 " fill-opacity="1" fill-rule="nonzero"/><path fill="#000000" d="M 105.882812 458.746094 C 104.835938 458.851562 104.3125 459.476562 103.6875 459.894531 C 98.566406 463.871094 93.445312 467.949219 88.324219 472.027344 C 79.652344 478.925781 70.246094 484.574219 59.898438 488.652344 C 59.585938 488.757812 59.0625 488.859375 58.855469 489.488281 C 59.796875 489.800781 60.632812 489.488281 61.46875 489.175781 C 69.515625 486.875 76.933594 483.109375 83.621094 478.195312 C 91.25 472.652344 98.355469 466.378906 105.148438 459.792969 C 105.464844 459.476562 105.777344 459.269531 105.882812 458.746094 Z M 105.882812 458.746094 " fill-opacity="1" fill-rule="nonzero"/><path fill="#000000" d="M 209.652344 172.128906 C 211.011719 169.621094 211.429688 167.214844 211.742188 164.914062 C 213.207031 155.085938 215.921875 145.464844 218.953125 136.054688 C 219.164062 135.324219 219.789062 134.484375 219.371094 133.648438 C 216.132812 136.996094 208.816406 165.648438 209.652344 172.128906 Z M 209.652344 172.128906 " fill-opacity="1" fill-rule="nonzero"/><path fill="#000000" d="M 192.933594 194.296875 C 193.976562 186.035156 193.976562 177.671875 195.648438 169.097656 C 194.289062 170.664062 193.453125 175.265625 192.933594 181.539062 C 192.722656 185.828125 192.410156 190.011719 192.933594 194.296875 Z M 192.933594 194.296875 " fill-opacity="1" fill-rule="nonzero"/><path fill="#000000" d="M 261.589844 22.808594 C 260.441406 23.019531 259.917969 23.855469 259.394531 24.691406 C 257.410156 27.515625 255.84375 30.546875 254.378906 33.683594 C 252.5 37.761719 250.828125 41.839844 249.46875 46.023438 C 244.871094 60.035156 236.824219 71.640625 225.640625 81.15625 C 223.550781 82.933594 221.566406 84.921875 219.476562 86.804688 C 219.371094 86.910156 219.371094 87.011719 219.265625 87.117188 C 219.582031 87.429688 219.789062 87.222656 220 87.011719 C 226.789062 81.785156 233.269531 76.136719 238.808594 69.445312 C 243.617188 63.589844 247.0625 56.898438 249.78125 49.789062 C 251.976562 44.140625 253.855469 38.496094 256.363281 32.953125 C 257.828125 29.605469 259.394531 26.15625 261.589844 22.808594 Z M 261.589844 22.808594 " fill-opacity="1" fill-rule="nonzero"/><path fill="#000000" d="M 236.40625 80.113281 C 238.496094 79.066406 240.167969 77.496094 241.839844 76.035156 C 248.632812 69.96875 254.691406 63.171875 259.8125 55.539062 C 260.023438 55.226562 260.230469 54.910156 259.917969 54.597656 C 259.8125 54.597656 259.8125 54.597656 259.710938 54.597656 C 259.605469 54.597656 259.605469 54.597656 259.5 54.597656 C 259.394531 54.703125 259.292969 54.804688 259.1875 54.910156 C 252.289062 63.800781 244.453125 71.851562 236.40625 79.796875 C 236.300781 79.796875 236.300781 79.902344 236.40625 80.113281 Z M 236.40625 80.113281 " fill-opacity="1" fill-rule="nonzero"/><path fill="#000000" d="M 213.625 63.695312 C 212.890625 62.753906 212.054688 62.125 211.21875 61.5 C 209.652344 60.347656 208.085938 59.09375 206.621094 57.628906 C 203.589844 54.492188 201.816406 50.726562 201.082031 46.441406 C 200.980469 45.605469 200.980469 44.769531 200.457031 43.929688 C 197.632812 51.042969 205.679688 63.066406 213.625 63.695312 Z M 213.625 63.695312 " fill-opacity="1" fill-rule="nonzero"/></g></g></g></g></g></svg>